<svg xmlns="http://www.w3.org/2000/svg" xmlns:xlink="http://www.w3.org/1999/xlink" width="500" zoomAndPan="magnify" viewBox="0 0 375 374.999991" height="500" preserveAspectRatio="xMidYMid meet" version="1.0"><defs><clipPath id="d571849ba3"><path d="M 59.164062 59.164062 L 315.664062 59.164062 L 315.664062 315.664062 L 59.164062 315.664062 Z M 59.164062 59.164062 " clip-rule="nonzero"/></clipPath></defs><g clip-path="url(#d571849ba3)"><path fill="#86c536" d="M 120.921875 254.054688 C 106.613281 242.882812 104.066406 222.222656 115.238281 207.914062 L 151.292969 161.722656 C 165.601562 172.894531 168.148438 193.550781 156.976562 207.859375 Z M 254.070312 120.90625 C 268.382812 132.078125 270.925781 152.734375 259.753906 167.046875 L 223.703125 213.238281 C 209.390625 202.066406 206.847656 181.410156 218.015625 167.097656 Z M 253.988281 254.058594 C 242.816406 268.371094 222.164062 270.917969 207.851562 259.746094 L 161.65625 223.691406 C 172.828125 209.382812 193.488281 206.835938 207.796875 218.007812 Z M 167.117188 156.960938 C 181.425781 168.132812 202.085938 165.585938 213.253906 151.277344 L 167.0625 115.21875 C 152.75 104.046875 132.09375 106.59375 120.921875 120.90625 Z M 81.222656 212.183594 C 93.398438 212.183594 103.269531 202.308594 103.269531 190.132812 C 103.269531 177.957031 93.398438 168.085938 81.222656 168.085938 C 69.046875 168.085938 59.175781 177.957031 59.175781 190.132812 C 59.175781 202.308594 69.046875 212.183594 81.222656 212.183594 Z M 315.816406 190.132812 C 315.816406 177.957031 305.949219 168.085938 293.769531 168.085938 C 281.59375 168.085938 271.722656 177.957031 271.722656 190.132812 C 271.722656 202.308594 281.59375 212.183594 293.769531 212.183594 C 305.949219 212.183594 315.816406 202.308594 315.816406 190.132812 Z M 184.761719 315.808594 C 196.9375 315.808594 206.8125 305.9375 206.8125 293.757812 C 206.8125 281.585938 196.9375 271.710938 184.761719 271.710938 C 172.585938 271.710938 162.714844 281.585938 162.714844 293.757812 C 162.714844 305.9375 172.585938 315.808594 184.761719 315.808594 Z M 212.199219 81.207031 C 212.199219 93.382812 202.328125 103.253906 190.148438 103.253906 C 177.972656 103.253906 168.101562 93.382812 168.101562 81.207031 C 168.101562 69.027344 177.972656 59.15625 190.148438 59.15625 C 202.328125 59.15625 212.199219 69.027344 212.199219 81.207031 " fill-opacity="1" fill-rule="nonzero"/></g><path fill="#52ade5" d="M 120.921875 120.90625 C 106.613281 132.078125 104.066406 152.734375 115.238281 167.046875 L 151.292969 213.238281 C 165.601562 202.066406 168.148438 181.410156 156.976562 167.097656 Z M 254.070312 254.054688 C 268.382812 242.882812 270.925781 222.222656 259.753906 207.914062 L 223.703125 161.722656 C 209.390625 172.894531 206.847656 193.550781 218.015625 207.859375 Z M 120.84375 254.058594 C 132.011719 268.371094 152.671875 270.917969 166.980469 259.746094 L 213.175781 223.691406 C 202.003906 209.382812 181.347656 206.835938 167.035156 218.007812 Z M 207.878906 156.960938 C 193.566406 168.132812 172.910156 165.585938 161.738281 151.277344 L 207.929688 115.21875 C 222.242188 104.046875 242.898438 106.59375 254.070312 120.90625 L 207.878906 156.960938 " fill-opacity="1" fill-rule="nonzero"/></svg>